# xmcd
#
# Track frame offsets:
#	150
#	13428
#	29057
#	46980
#	72742
#	88914
#	105043
#	122696
#	139401
#	155916
#	171261
#	191913
#	209235
#	227997
#	245105
#	264551
#	280503
#	298318
#	314705
#
# Disc length: 4392 seconds
#
# Revision: 0
# Processed by: cddbd v1.5.2PL0 Copyright (c) Steve Scherf et al.
# Submitted via: audiograbber 1.83.01
#
DISCID=42112613
DTITLE=Various Artist - Viva Hits 23 CD 2
DYEAR=2001
DGENRE=Pop
TTITLE0=Shania Twain - Up
TTITLE1=Chris DeBurgh - The Words I Love You
TTITLE2=Sugababes - Too Lost In You
TTITLE3=Delirious - Inside Outside
TTITLE4=Edguy - King Of Fools
TTITLE5=Natural - Let Me Just Fly
TTITLE6=Nelly Furtado - Powerless
TTITLE7=Overground - Schick Mir Nen Engel
TTITLE8=Patrick Nuo - Undone
TTITLE9=Preluders - Everyday Girl
TTITLE10=Reamonn - Strong
TTITLE11=Ronan Keating - Lost For Words
TTITLE12=Shania Twain - When You Kissed Me
TTITLE13=Sheryl Crow - First Cut Is The Deepest
TTITLE14=Stacie Orrico - I Promise
TTITLE15=Stefanie Kramer - Tears
TTITLE16=Sugababes - In The Middle
TTITLE17=The Darkness - I Believe In A Thing Called Love
TTITLE18=Vanilla Ninja - Don´t Go To Fast
EXTD=
EXTT0=
EXTT1=
EXTT2=
EXTT3=
EXTT4=
EXTT5=
EXTT6=
EXTT7=
EXTT8=
EXTT9=
EXTT10=
EXTT11=
EXTT12=
EXTT13=
EXTT14=
EXTT15=
EXTT16=
EXTT17=
EXTT18=
PLAYORDER=
